<mxfile host="app.diagrams.net" modified="2023-09-28T08:51:53.702Z" agent="Mozilla/5.0 (Windows NT 10.0; Win64; x64) AppleWebKit/537.36 (KHTML, like Gecko) Chrome/117.0.0.0 Safari/537.36 Edg/117.0.2045.43" version="21.7.5" etag="IZFx6npiK_JcD0jcIUh3" type="github">
  <diagram name="Page-1" id="bQ9Jk852V6yr62kh-1Na">
    <mxGraphModel>
      <root>
        <mxCell id="0" />
        <mxCell id="1" parent="0" />
      </root>
    </mxGraphModel>
  </diagram>
</mxfile>
